<?xml version="1.0" encoding="UTF-8"?>
<!DOCTYPE svg PUBLIC "-//W3C//DTD SVG 1.1//EN" "http://www.w3.org/Graphics/SVG/1.1/DTD/svg11.dtd">
<!-- Creator: CorelDRAW 2020 (64-Bit) -->
<svg xmlns="http://www.w3.org/2000/svg" xml:space="preserve" width="8.4666mm" height="8.4666mm" version="1.1" style="shape-rendering:geometricPrecision; text-rendering:geometricPrecision; image-rendering:optimizeQuality; fill-rule:evenodd; clip-rule:evenodd"
viewBox="0 0 846.66 846.66"
 xmlns:xlink="http://www.w3.org/1999/xlink"
 xmlns:xodm="http://www.corel.com/coreldraw/odm/2003">
 <defs>
  <style type="text/css">
   <![CDATA[
    .fil2 {fill:#00AB94}
    .fil0 {fill:#596B76}
    .fil1 {fill:#60D7A8}
    .fil5 {fill:#EFE2DD}
    .fil3 {fill:#FCBE00}
    .fil4 {fill:#FF9100}
   ]]>
  </style>
 </defs>
 <g id="Layer_x0020_1">
  <metadata id="CorelCorpID_0Corel-Layer"/>
  <g id="_1452658488256">
   <path class="fil0" d="M328.04 203.39c-12.77,20.83 -21.54,35.09 -23.39,66.11 -2.97,49.88 18.09,98.84 43.83,137.7 19.32,29.16 27.14,32.57 40.72,50.98l23.32 20.59c46.72,41.51 131.89,78.75 197.62,57.01 14.2,-4.7 19.93,-9.63 31.47,-15.69l9.53 -7.85c16.97,-17.07 29.91,-41.69 33.05,-66.17 4.42,-34.36 -3.01,-68.46 -14.92,-98.35 -4.02,-10.07 -8.13,-18.05 -12.75,-26.94 -3.34,-6.42 -10.67,-19.08 -14.91,-24.36l-36.67 29.02c-12.18,9.83 -23.27,18.93 -35.65,28.85 -11.57,9.26 -28.49,26.21 -38.02,25.66 -12.82,-0.72 -31.4,-8.44 -40.14,-17.71 -2.77,-2.93 -0.84,-0.29 -3.13,-3.96 -9.85,-8.38 -21.05,-25.17 -21.06,-44.4 0,-7.64 7.93,-14.26 12.36,-19.76 10.67,-13.25 68.66,-83.59 70.96,-89.07 -57.57,-35.64 -140.56,-67.39 -202.29,-20.8 -4.33,3.27 -7.28,5.14 -11.08,8.78 -4.39,4.19 -7.02,6.07 -8.85,10.36z"/>
   <path class="fil1" d="M223.25 846.67l0.08 -162.15 -24.55 23.49 -66.26 -66.67 33.97 -35.06 31.52 30.92c6.48,-4.26 22.19,-20.04 25.4,-25.42l-0.16 -211.6c-53.79,0 -105.87,18.18 -143.45,51.69l-27.31 27.26c-64.07,71.91 -70.76,193.73 -13.06,271.88 44.29,59.99 105.17,95.64 183.76,95.66l0.06 0z"/>
   <path class="fil2" d="M223.41 611.78c13.47,-9.86 47.02,-49.89 57.71,-54.72 6.83,6.89 30.25,27.98 33.25,34.91l-91.04 92.55 -0.08 162.15 0.11 0c52.76,-0.02 93.55,-14.67 131.48,-42.04 45.87,-33.1 79.56,-84.96 88.83,-142.68 2.88,-17.95 2.81,-34.55 2.81,-56.67 -24.44,-5.48 -51.89,-20.66 -70.58,-32.03 -15.08,-9.17 -47.8,-34.78 -55.69,-45.33 -15.79,-14.62 -32.78,-36.47 -46.57,-57.44 -13.28,-20.19 -24.51,-43.99 -32.16,-70.3l-18.23 0 0.16 211.6z"/>
   <path class="fil3" d="M550.26 205.05c-2.3,5.48 -60.29,75.82 -70.96,89.07 -4.43,5.5 -12.36,12.12 -12.36,19.76 0.01,19.23 11.21,36.02 21.06,44.4l41.59 -40.36c14.18,-14.18 27.16,-27.16 41.34,-41.34l250.93 -250.86c-14.8,-15.77 -36.29,-24.58 -58.35,-25.72l-9.88 0c-23.7,1.24 -47.02,11.42 -62.41,31.41 -33.74,43.82 -77.65,94.36 -112.44,138.91 -9.23,11.81 -18.71,22.88 -28.52,34.73z"/>
   <path class="fil4" d="M488 358.28c2.29,3.67 0.36,1.03 3.13,3.96 8.74,9.27 27.32,16.99 40.14,17.71 9.53,0.55 26.45,-16.4 38.02,-25.66 12.38,-9.92 23.47,-19.02 35.65,-28.85l36.67 -29.02 137.95 -112.17c6.17,-4.87 10.41,-8.38 16.56,-13.21 18.66,-14.66 34.6,-26.74 44.44,-49.82 3.26,-7.65 5.23,-15.47 6.1,-23.22l0 -19.57c-2.37,-21.38 -12.23,-40.69 -24.8,-52.71l-250.93 250.86c-14.18,14.18 -27.16,27.16 -41.34,41.34l-41.59 40.36z"/>
   <path class="fil3" d="M241.48 400.18c7.65,26.31 18.88,50.11 32.16,70.3 13.79,20.97 30.78,42.82 46.57,57.44l68.99 -69.74c-13.58,-18.41 -21.4,-21.82 -40.72,-50.98 -25.74,-38.86 -46.8,-87.82 -43.83,-137.7 1.85,-31.02 10.62,-45.28 23.39,-66.11 -9.98,5.39 -65.05,63.65 -73.89,75.56 -18.55,24.97 -21.9,58.27 -19.29,89.77 0.71,8.61 3.64,25.46 6.62,31.46z"/>
   <path class="fil4" d="M320.21 527.92c7.89,10.55 40.61,36.16 55.69,45.33 18.69,11.37 46.14,26.55 70.58,32.03 11.2,5.17 46.16,9.83 63.58,7.3 25.15,-3.65 38.73,-7.01 55.84,-18.57 16.44,-11.1 41.09,-37.67 57.11,-53.68 6.53,-6.54 14.45,-12.09 18.6,-20.24 -11.54,6.06 -17.27,10.99 -31.47,15.69 -65.73,21.74 -150.9,-15.5 -197.62,-57.01l-23.32 -20.59 -68.99 69.74z"/>
   <path class="fil5" d="M223.41 611.78c-3.21,5.38 -18.92,21.16 -25.4,25.42l-31.52 -30.92 -33.97 35.06 66.26 66.67 24.55 -23.49 91.04 -92.55c-3,-6.93 -26.42,-28.02 -33.25,-34.91 -10.69,4.83 -44.24,44.86 -57.71,54.72z"/>
  </g>
 </g>
</svg>
