<?xml version="1.0" encoding="UTF-8"?>
<!DOCTYPE svg PUBLIC "-//W3C//DTD SVG 1.1//EN" "http://www.w3.org/Graphics/SVG/1.1/DTD/svg11.dtd">
<!-- Creator: CorelDRAW 2020 (64-Bit) -->
<svg xmlns="http://www.w3.org/2000/svg" xml:space="preserve" width="8.4666mm" height="8.4666mm" version="1.1" style="shape-rendering:geometricPrecision; text-rendering:geometricPrecision; image-rendering:optimizeQuality; fill-rule:evenodd; clip-rule:evenodd"
viewBox="0 0 846.66 846.66"
 xmlns:xlink="http://www.w3.org/1999/xlink"
 xmlns:xodm="http://www.corel.com/coreldraw/odm/2003">
 <defs>
  <style type="text/css">
   <![CDATA[
    .fil7 {fill:#685E68}
    .fil2 {fill:#7AC9A5}
    .fil4 {fill:#8795DE}
    .fil0 {fill:#C59191}
    .fil5 {fill:#C9BFC7}
    .fil1 {fill:#EDEAED}
    .fil3 {fill:#FECDBE}
    .fil6 {fill:#FFB09E}
   ]]>
  </style>
 </defs>
 <g id="Layer_x0020_1">
  <metadata id="CorelCorpID_0Corel-Layer"/>
  <g id="_1452758825152">
   <path class="fil0" d="M370.42 484.08c8.1,-0.64 31.41,-12.14 37.59,-16.55 14.58,-10.44 14.78,-14.56 24.98,-28.96 1.89,-11.11 5.06,-13.75 5.11,-27.92 -3.61,-4.47 -11.36,-7.23 -20.11,-13.41 -19.12,-13.52 -35.26,-37.61 -41.64,-62.61 -6.86,-26.92 -3.24,-102.57 -3.24,-135.15 49.72,-4.92 107.67,-27.55 147.24,-56.19 5.6,-4.04 11.83,-9.58 17.49,-12.15 4.62,25.31 41.44,49.89 65.19,59.81 7.3,3.05 28.84,6.32 33,10.78 2.1,9.59 1.6,49.2 -0.97,58.25 3.25,7.23 2.2,45.86 -0.53,52.72 4.52,6.27 -1.76,25.05 -4.02,31.7 -9.27,27.32 -31.52,52.66 -58.39,64.52 -2.54,25.5 11.43,37.45 20.23,51.07 7.6,4.85 11.82,8.94 22.03,13.73 6.88,3.23 20.35,9.56 27.23,10.34 29.83,3.21 58.9,-5.43 78.2,-25.53 8.35,-8.71 15.44,-20.05 19.87,-31.39 4.81,-12.3 8.36,-28.28 5.49,-46.19 -4.72,-29.57 -20.42,-40.62 -36.48,-67.69 -32.31,-54.47 -5.86,-119.12 -25.52,-182.84 -12.82,-41.6 -33.31,-66.96 -64.31,-92.53 -28.92,-23.86 -65.84,-36.48 -103.83,-37.9l-14.43 0c-74.84,2.77 -150.44,48.65 -174.52,137.57 -13.14,48.51 1.5,97.34 -10.53,141.6 -3.84,14.1 -8.56,25.23 -15.71,37.21 -13.6,22.8 -32.46,35.58 -35.34,68.89 -5.02,58.24 39.58,105.54 105.92,98.82z"/>
   <path class="fil1" d="M505.17 681.06c43.8,-9.11 58.63,59.34 13.16,68.57 -45.25,9.19 -60.01,-58.83 -13.16,-68.57zm-142.37 -144.53l-0.33 60.71c-10.49,-2.58 -26.38,-0.62 -38.36,-0.67 -48.97,-0.22 -36.33,28.9 -31.33,77.96 4.57,44.87 13.47,99.01 14.81,142.98 1.9,4.33 1.19,2.28 3.29,4.46l403.31 -0.29c1.52,-29.03 12.13,-116.5 16.01,-151.09 2.45,-21.86 10.91,-57.18 -4.24,-68.64 -11.03,-8.35 -70.6,-6.62 -78.66,-4.41l-0.47 -63.64c-9.65,1.17 -22.25,6.21 -32.81,8.7 -63.51,15 -118.45,17.14 -183.35,8.39 -23.28,-3.14 -47.05,-11.49 -67.87,-14.46z"/>
   <path class="fil2" d="M84.76 121.88c17.13,-6.88 23.54,17.14 10.28,23.08 -7.75,3.48 -15.18,-0.8 -17.42,-6.62 -3.46,-8.97 0.17,-13.67 7.14,-16.46zm44.6 -121.89l22.88 0c15.57,1.35 30.89,5.5 45.11,12.67 18.07,9.11 31.33,18.38 43.85,33.86 42.31,52.36 43.1,123.67 1.41,172.93 -3.68,4.34 -16.06,13.18 -16.06,18.67 0,10.74 28.56,11.97 29.77,26.46 -2.99,2 -2.91,3.3 -6.62,3.3l-97.57 0c-33.95,0 -56.27,-5.02 -82.16,-20.35 -21.09,-12.49 -36.88,-30.25 -49.02,-51.86 -14.02,-24.99 -14.34,-45.76 -14.34,-73.3 0,-31.49 22.04,-67.96 38.4,-83.98 22.88,-22.38 53.27,-35.74 84.35,-38.4zm72.6 139.94c-5.44,3.86 -8.64,9.02 -17.63,5.09 -4.77,-2.09 -8.75,-9.43 -6.22,-16.4 3.8,-10.44 27.95,-15.11 23.85,11.31zm-72.4 3.39c-1.81,-5.6 -4.77,-14.06 0.98,-19.43 4.66,-4.33 13.67,-4.23 18.22,0.17 10.02,9.68 2.79,27 -19.2,19.26z"/>
   <path class="fil3" d="M438.1 410.65c8.01,0.52 19.58,5.79 30.14,7.32 12.35,1.78 25.29,1.23 37.77,1.23 24.22,0 46.29,0.16 66.11,-10.28 26.87,-11.86 49.12,-37.2 58.39,-64.52 2.26,-6.65 8.54,-25.43 4.02,-31.7 -36.8,44.03 -59.8,37.77 -75.59,51.09 -10.04,8.48 -19.51,6.46 -34.74,6.51 -47.35,0.14 -37.39,-33.1 -27.41,-42.2 9.47,-8.63 21.69,-6.37 35.69,-6.43 23.21,-0.09 18.28,1.66 31.41,11.37 30.21,-7.71 64.98,-42.04 71.17,-73.06 2.57,-9.05 3.07,-48.66 0.97,-58.25 -4.16,-4.46 -25.7,-7.73 -33,-10.78 -23.75,-9.92 -60.57,-34.5 -65.19,-59.81 -5.66,2.57 -11.89,8.11 -17.49,12.15 -39.57,28.64 -97.52,51.27 -147.24,56.19 0,32.58 -3.62,108.23 3.24,135.15 6.38,25 22.52,49.09 41.64,62.61 8.75,6.18 16.5,8.94 20.11,13.41z"/>
   <path class="fil4" d="M194.8 626.73l-0.17 195.13 103.23 0.18c9.46,0.02 9.2,1.78 9.73,-4.53 -1.34,-43.97 -10.24,-98.11 -14.81,-142.98 -5,-49.06 -17.64,-78.18 31.33,-77.96 11.98,0.05 27.87,-1.91 38.36,0.67l0.33 -60.71c0.73,-9.44 2.1,-40 -0.65,-46.56 -5.57,0.49 -95.9,39.86 -106.42,45.22 -31.47,16 -57.54,47.5 -60.93,91.54z"/>
   <path class="fil4" d="M646.83 533.9l0.47 63.64c8.06,-2.21 67.63,-3.94 78.66,4.41 15.15,11.46 6.69,46.78 4.24,68.64 -3.88,34.59 -14.49,122.06 -16.01,151.09l101.06 0.11 0 -185.14c0.13,-54.71 -28.06,-89.47 -77.01,-109.85 -30.24,-12.59 -57.99,-25.6 -88.36,-37.92 -4.49,1.5 -1.47,-0.77 -2.94,3.99l-0.11 41.03z"/>
   <path class="fil3" d="M370.42 484.08l-7.19 5.18c-0.24,0.16 -0.76,0.42 -1.08,0.71 2.75,6.56 1.38,37.12 0.65,46.56 20.82,2.97 44.59,11.32 67.87,14.46 64.9,8.75 119.84,6.61 183.35,-8.39 10.56,-2.49 23.16,-7.53 32.81,-8.7l0.11 -41.03c1.47,-4.76 -1.55,-2.49 2.94,-3.99 -1.3,-0.6 -2.92,-1 -4.28,-1.79 -4.14,-2.43 -1.43,-0.3 -3.99,-3.03 -6.88,-0.78 -20.35,-7.11 -27.23,-10.34 -10.21,-4.79 -14.43,-8.88 -22.03,-13.73 -0.29,0.27 -0.74,0.6 -0.94,0.74l-18.45 6.35c-7.29,1.46 -14.65,2.18 -22.27,2.35 -49.59,1.11 -80.88,2.77 -117.7,-30.86 -10.2,14.4 -10.4,18.52 -24.98,28.96 -6.18,4.41 -29.49,15.91 -37.59,16.55z"/>
   <path class="fil5" d="M815.25 821.79l-101.06 -0.11 -403.31 0.29c-2.1,-2.18 -1.39,-0.13 -3.29,-4.46 -0.53,6.31 -0.27,4.55 -9.73,4.53l-103.23 -0.18 0.17 -195.13c-3.85,7.56 -1.32,170.99 -1.32,195.13l-173.69 -0.05c-5.86,-0.07 -17.82,-0.72 -19.79,8.71l0 6.13c1.28,7.9 6.6,9.68 14.15,10.01l11.76 0c244.26,-1.26 491.71,0 736.42,0l71.92 0c7.66,-0.77 11.34,-4.61 12.42,-9l0 -6.03c-0.28,-1.21 -0.71,-2.38 -1.25,-3.45 -4.69,-9.12 -17.18,-6.18 -30.17,-6.39z"/>
   <path class="fil6" d="M438.1 410.65c-0.05,14.17 -3.22,16.81 -5.11,27.92 36.82,33.63 68.11,31.97 117.7,30.86 7.62,-0.17 14.98,-0.89 22.27,-2.35l18.45 -6.35c0.2,-0.14 0.65,-0.47 0.94,-0.74 -8.8,-13.62 -22.77,-25.57 -20.23,-51.07 -19.82,10.44 -41.89,10.28 -66.11,10.28 -12.48,0 -25.42,0.55 -37.77,-1.23 -10.56,-1.53 -22.13,-6.8 -30.14,-7.32z"/>
   <path class="fil7" d="M634.53 312.7c2.73,-6.86 3.78,-45.49 0.53,-52.72 -6.19,31.02 -40.96,65.35 -71.17,73.06 -13.13,-9.71 -8.2,-11.46 -31.41,-11.37 -14,0.06 -26.22,-2.2 -35.69,6.43 -9.98,9.1 -19.94,42.34 27.41,42.2 15.23,-0.05 24.7,1.97 34.74,-6.51 15.79,-13.32 38.79,-7.06 75.59,-51.09z"/>
   <path class="fil5" d="M505.17 681.06c-46.85,9.74 -32.09,77.76 13.16,68.57 45.47,-9.23 30.64,-77.68 -13.16,-68.57z"/>
   <path class="fil1" d="M129.56 143.32c21.99,7.74 29.22,-9.58 19.2,-19.26 -4.55,-4.4 -13.56,-4.5 -18.22,-0.17 -5.75,5.37 -2.79,13.83 -0.98,19.43z"/>
   <path class="fil1" d="M84.76 121.88c-6.97,2.79 -10.6,7.49 -7.14,16.46 2.24,5.82 9.67,10.1 17.42,6.62 13.26,-5.94 6.85,-29.96 -10.28,-23.08z"/>
   <path class="fil1" d="M201.96 139.93c4.1,-26.42 -20.05,-21.75 -23.85,-11.31 -2.53,6.97 1.45,14.31 6.22,16.4 8.99,3.93 12.19,-1.23 17.63,-5.09z"/>
  </g>
 </g>
</svg>
