<?xml version="1.0" encoding="UTF-8"?>
<!DOCTYPE svg PUBLIC "-//W3C//DTD SVG 1.1//EN" "http://www.w3.org/Graphics/SVG/1.1/DTD/svg11.dtd">
<!-- Creator: CorelDRAW 2020 (64-Bit) -->
<svg xmlns="http://www.w3.org/2000/svg" xml:space="preserve" width="8.4666mm" height="8.4666mm" version="1.1" style="shape-rendering:geometricPrecision; text-rendering:geometricPrecision; image-rendering:optimizeQuality; fill-rule:evenodd; clip-rule:evenodd"
viewBox="0 0 846.66 846.66"
 xmlns:xlink="http://www.w3.org/1999/xlink"
 xmlns:xodm="http://www.corel.com/coreldraw/odm/2003">
 <defs>
  <style type="text/css">
   <![CDATA[
    .fil7 {fill:#505264}
    .fil4 {fill:#53B4E4}
    .fil3 {fill:#75CFF1}
    .fil5 {fill:#CF3735}
    .fil8 {fill:#D5D5D6}
    .fil0 {fill:#DDDCDB}
    .fil2 {fill:#EED0AF}
    .fil6 {fill:#F43B45}
    .fil1 {fill:#F9DFC0}
   ]]>
  </style>
 </defs>
 <g id="Layer_x0020_1">
  <metadata id="CorelCorpID_0Corel-Layer"/>
  <g id="_1452640755056">
   <path class="fil0" d="M451.72 221.49c11.81,-19.16 23.72,-38.3 35.48,-57.56 12.96,-21.25 23.99,-13.29 26.69,-5.69 3.97,11.18 -8.5,25.41 -12.99,32.71 -11.84,19.22 -23.74,38.48 -35.5,57.54 -12.24,19.82 -23.29,38.74 -36.37,58.27 -9.19,13.73 -19.67,7.15 -27.37,-2.35 -12.43,-15.33 -25.34,-23.97 -34.56,-35.51 -4.45,-5.58 -7.73,-7.45 -11.74,-12.28 -7.72,-9.28 -2.51,-27.67 12.66,-22.49 9.1,3.1 31.02,33.68 47.04,44.9l36.66 -57.54zm-26.73 229.05c16.63,-4.93 54.36,-38.87 65.79,-49.49 38.22,-35.51 70.52,-92.55 89.21,-144.96 6.34,-17.77 24.43,-77.09 21.84,-97.11 -33.22,-22.99 -57.14,-49.33 -71.54,-89.3 -1.29,-3.58 -1.88,-6.19 -2.96,-9.19 -4.84,-13.37 -11.33,-9 -36.25,-8.8l-168.55 1.97c-4.85,6.47 -9.58,24.4 -14.11,34.05 -5.45,11.6 -10.37,19.93 -17.09,29.51 -6.9,9.81 -14.09,16.62 -21.76,24.47 -7.93,8.13 -23.63,18.29 -24.83,21.16 -2.04,18.59 16.88,78.52 23.05,95.53 11.19,30.86 23.56,54.12 38.6,78.93 22.57,37.25 83.47,101.81 118.6,113.23z"/>
   <path class="fil1" d="M143.52 683.64l86.19 34.42c109.4,44.52 77.5,44.01 190.54,26.77 36.38,-5.54 181.3,-25.76 205.37,-33.42 16.55,-5.27 27.72,-13.14 38.97,-22.06l154.38 -121.31c5.87,-4.44 11.16,-9.32 17.77,-13.41 -6.63,-8.33 -20.64,-17.16 -35.45,-14.48 -15.41,2.8 -23.03,11.37 -33.65,18.97l-123.05 87.65c-49.47,35.25 -25.38,18.49 -82.35,19.9 -70.59,5.66 -168.17,20.14 -243.64,29.11 -14.74,1.76 -24.28,4 -38.15,-2.03 -43.87,-19.06 -21.77,-51.46 -3.84,-36.58 5.44,4.52 4.76,7.15 13.43,10.56 6.49,2.56 11.09,2.07 18.21,1.58l252.34 -17.98c0,-25.21 -9.44,-39.07 -21.89,-51.52 -16.95,-16.96 -32.96,-16.21 -52.27,-18.36l-129.19 -12.15c-43.45,-2.57 -67.81,-14.58 -104.16,-37.14 -32.62,-20.25 -57.72,-33.5 -109.62,-33.5l0.06 184.98z"/>
   <path class="fil2" d="M143.52 683.64l-0.02 88.97c14.86,6.76 31.94,13.22 46.92,19.17 26.93,10.72 126.43,54.93 146.92,54.88l231.42 -35.26c17.19,-2.55 39.48,-4.86 55.28,-9.85 14.61,-4.61 33.46,-15.11 42.81,-24.94l156.66 -150.7c13.2,-10.76 20.83,-23.74 23.16,-36.27l0 -16.16c-1.41,-7.07 -4.74,-13.56 -9.93,-18.85 -6.61,4.09 -11.9,8.97 -17.77,13.41l-154.38 121.31c-11.25,8.92 -22.42,16.79 -38.97,22.06 -24.07,7.66 -168.99,27.88 -205.37,33.42 -113.04,17.24 -81.14,17.75 -190.54,-26.77l-86.19 -34.42z"/>
   <path class="fil3" d="M384.04 484.52c3.82,-4.38 15.93,-11.99 21.09,-15.95 7.5,-5.77 15.35,-11.72 19.86,-18.03 -35.13,-11.42 -96.03,-75.98 -118.6,-113.23 -15.04,-24.81 -27.41,-48.07 -38.6,-78.93 -6.17,-17.01 -25.09,-76.94 -23.05,-95.53 1.2,-2.87 16.9,-13.03 24.83,-21.16 7.67,-7.85 14.86,-14.66 21.76,-24.47 6.72,-9.58 11.64,-17.91 17.09,-29.51 4.53,-9.65 9.26,-27.58 14.11,-34.05l168.55 -1.97c-4.63,-17.14 -9.91,-31.08 -8.66,-51.45l-143.43 0c-11.86,-0.03 -18.55,1.52 -28.05,1.83 -36.13,1.14 -28.16,-4 -34.08,27.2 -14.4,75.92 -70.6,92.6 -78.94,101.21 -16.49,17.05 17.53,125.48 26.5,149.52 5.65,15.16 11.36,28.37 18.09,42.53 27.02,56.9 89.01,136.02 141.53,161.99z"/>
   <path class="fil4" d="M491.08 51.69c24.92,-0.2 31.41,-4.57 36.25,8.8 1.08,3 1.67,5.61 2.96,9.19 14.4,39.97 38.32,66.31 71.54,89.3 2.59,20.02 -15.5,79.34 -21.84,97.11 -18.69,52.41 -50.99,109.45 -89.21,144.96 -11.43,10.62 -49.16,44.56 -65.79,49.49 -4.51,6.31 -12.36,12.26 -19.86,18.03 -5.16,3.96 -17.27,11.57 -21.09,15.95l36.77 22.33c8.13,2.3 15.47,-3.45 20.73,-6.4 52.77,-29.53 76.22,-54.88 113.67,-97.68 43.86,-50.13 81.45,-148.77 92.33,-214.15 12.97,-78.05 4.56,-52.65 -30.53,-80.78 -50.78,-40.73 -47.1,-87.75 -51.97,-99.99 -3.87,-9.73 -10.84,-7.71 -22.64,-7.62 -19.97,0.14 -39.99,0.01 -59.98,0.01 -1.25,20.37 4.03,34.31 8.66,51.45z"/>
   <path class="fil5" d="M60.02 700.55c51.92,-13.12 57.4,76.18 -0.48,66.45l0.52 53.33c21.22,0 42.92,0.5 64.07,0.11 22.68,-0.41 21.38,-22.63 19.37,-47.83l0.02 -88.97 -0.06 -184.98c1.13,-12.8 0.33,-26.01 0.43,-38.91 0.12,-15.5 -1.09,-23.93 -11.46,-28.41 -10.58,-4.56 -56.06,-1.61 -72.09,-1.61l-0.32 270.82z"/>
   <path class="fil6" d="M60.06 820.33l-0.52 -53.33c-12.57,-6.63 -22.56,-14.17 -22.7,-33.23 -0.15,-18.5 10.43,-28.57 23.18,-33.22l0.32 -270.82c-48.92,0 -58.72,-3.28 -60.34,21.17l0 43.95 0 0.27 0 144.93 0 163.6c0.49,3.72 1.71,7.01 4.41,10.19 8.75,10.28 33.92,6.49 55.65,6.49z"/>
   <path class="fil2" d="M562.24 666.67c0,-2.49 0.25,-6.77 0.06,-9.04 -0.32,-3.72 0.27,0.19 -0.39,-2.96 -1,-4.79 0.29,-1.28 -1.32,-3.34l-252.34 17.98c-7.12,0.49 -11.72,0.98 -18.21,-1.58 -8.67,-3.41 -7.99,-6.04 -13.43,-10.56 -17.93,-14.88 -40.03,17.52 3.84,36.58 13.87,6.03 23.41,3.79 38.15,2.03 75.47,-8.97 173.05,-23.45 243.64,-29.11z"/>
   <path class="fil7" d="M415.06 279.03c-16.02,-11.22 -37.94,-41.8 -47.04,-44.9 -15.17,-5.18 -20.38,13.21 -12.66,22.49 4.01,4.83 7.29,6.7 11.74,12.28 9.22,11.54 22.13,20.18 34.56,35.51 7.7,9.5 18.18,16.08 27.37,2.35 13.08,-19.53 24.13,-38.45 36.37,-58.27 11.76,-19.06 23.66,-38.32 35.5,-57.54 4.49,-7.3 16.96,-21.53 12.99,-32.71 -2.7,-7.6 -13.73,-15.56 -26.69,5.69 -11.76,19.26 -23.67,38.4 -35.48,57.56l-36.66 57.54z"/>
   <path class="fil8" d="M60.02 700.55c-12.75,4.65 -23.33,14.72 -23.18,33.22 0.14,19.06 10.13,26.6 22.7,33.23 57.88,9.73 52.4,-79.57 0.48,-66.45z"/>
  </g>
 </g>
</svg>
