<?xml version="1.0" encoding="UTF-8"?>
<!DOCTYPE svg PUBLIC "-//W3C//DTD SVG 1.1//EN" "http://www.w3.org/Graphics/SVG/1.1/DTD/svg11.dtd">
<!-- Creator: CorelDRAW 2020 (64-Bit) -->
<svg xmlns="http://www.w3.org/2000/svg" xml:space="preserve" width="8.4666mm" height="8.4666mm" version="1.1" style="shape-rendering:geometricPrecision; text-rendering:geometricPrecision; image-rendering:optimizeQuality; fill-rule:evenodd; clip-rule:evenodd"
viewBox="0 0 846.66 846.66"
 xmlns:xlink="http://www.w3.org/1999/xlink"
 xmlns:xodm="http://www.corel.com/coreldraw/odm/2003">
 <defs>
  <style type="text/css">
   <![CDATA[
    .fil1 {fill:black}
    .fil2 {fill:#5DDDF4}
    .fil4 {fill:#D5F5FB}
    .fil0 {fill:#FEFEFE}
    .fil3 {fill:#FF7380}
   ]]>
  </style>
 </defs>
 <g id="Layer_x0020_1">
  <metadata id="CorelCorpID_0Corel-Layer"/>
  <g id="_1452761551552">
   <path class="fil0" d="M496.44 686.97c-8.97,-43.9 27.3,-45.27 31.93,-23.44 9.18,43.22 -27.67,44.31 -31.93,23.44zm207.97 -180.58c-7.29,18.11 -56.75,13.92 -45.24,-14.32 7.09,-17.41 56.78,-14.38 45.24,14.32zm-384.87 -5.16c-2.55,-26.43 47,-27.09 47.88,-3.41 0.95,25.7 -45.89,24.09 -47.88,3.41zm239.8 -25.8c4.16,21.5 9.18,32.86 -3.88,53.16 -7.7,11.96 -22.69,23.83 -42.83,23.83 -19.93,0 -34.52,-11.62 -42.14,-22.84 -13.48,-19.84 -9.09,-31.73 -4.52,-54.15 -9.07,-9.36 -17.15,-17.81 -26.3,-27.31 -5.83,-6.04 -23.25,-20.76 -9.81,-34.69 16.51,-17.09 37.95,15.12 59.77,37.46 22.14,-7.03 23.87,-7.05 46.01,0l72.69 -75.42c5.73,-5.98 19.44,-23.69 32.53,-9.29 15.46,17.01 -14.27,39.41 -32.9,58.77 -16.48,17.13 -31.89,33.95 -48.62,50.48zm-52.11 -176.23c26.16,-9.41 30.71,41.76 11.15,48.11 -27.44,8.91 -29.06,-41.66 -11.15,-48.11zm-18.28 -31.19c-114.6,13.43 -212.68,119.43 -198.49,255.61 12.44,119.46 114.77,220.37 245.32,206.56 114.68,-12.14 212.8,-119.63 199.1,-254.98 -12.08,-119.31 -115.49,-222.48 -245.93,-207.19z"/>
   <path class="fil1" d="M472.94 118.17l79.36 -0.01 0.11 36.01c-29.81,-2.54 -50.31,-2.31 -80.13,0.01l0.66 -36.01zm373.73 363.66l0 27.99c-2.18,58.57 -17.88,117.06 -45.78,165.65 -7.43,12.94 -11.37,24.31 -31.3,18.38 -12.3,-25.18 -8.15,-12.62 9.59,-49.6 27.78,-57.88 40.02,-117.5 31.66,-184.57 -32.01,-256.9 -332.09,-365.67 -510.46,-182.63 -78.73,80.8 -113.33,211.91 -69.16,332.82 6.71,18.37 14.13,33.86 23.16,49.87l22.29 33.56c73.04,99.82 207.33,141.27 323.34,105.14 18.06,-5.62 35.34,-12.99 50.87,-21.06 15.16,-7.88 33.08,-27.01 48.61,-11.89 8,18.94 -1.4,23.42 -14.54,31.9 -31.43,20.29 -70.91,35.13 -107.69,42.79 -30.51,6.35 -57.86,7.98 -92.87,5.14 -91.79,-7.43 -156.65,-47.78 -217.76,-110.61l-32.83 -43.25c-24.37,-38.03 -21.56,-44.24 -33.71,-68.12l-109.2 0.06c-35.16,0.14 -28.38,-32.18 -11.18,-35.82l108.8 -0.36c-0.16,-7.6 -8.98,-41.8 -9.92,-65.35 -0.96,-24.19 1.43,-84.93 8.27,-99.75l-158.76 0.01c-10.83,0.07 -15.71,1.34 -22.25,-4.39 -2.75,-2.4 -5.1,-5.87 -5.85,-10.26l0 -6.12c0.13,-0.83 0.32,-1.69 0.57,-2.58 4.38,-15.42 22.43,-12.78 40.77,-12.78l155.44 0c5.5,-24.54 25.67,-55.85 28.11,-65.35 -24.8,0 -49.61,0 -74.41,0 -12.61,0 -26.99,2.32 -33.63,-4.58 -7.09,-7.37 -4.79,-21.36 2.13,-26.46 9.22,-6.78 84.35,-3.39 107.57,-3.36 18.57,0.03 19.73,3.23 28.12,-8.58 12.61,-17.76 25.35,-27.53 36.8,-39.12 23.76,-24.06 60.2,-46.37 91.22,-59.92 9.29,-4.06 16.54,-7.11 26.36,-10.42 7.44,-2.51 21.33,-7.32 29.16,-7.5l0 -44.72c-15.3,-1.32 -31.11,-19.4 -37.01,-32.02 -7.63,-16.33 -6.62,-39.39 4.57,-56.76 22.1,-34.28 56.53,-26.45 108.51,-26.45 53.43,0 84.24,-7.45 106.22,28.84 21.69,35.83 -4.21,83.72 -35.11,86.39l0 43c4.55,2.27 40.74,9.95 78.84,29.79 45.21,23.53 86.5,60.62 116.53,102.38 15.62,21.72 27.21,43.51 38.91,69.61 16.6,37.04 25.42,78.65 27,121.06zm-398.19 -445.45c13.8,-3.43 83.98,-0.75 103.84,-0.77 18.05,-0.01 32.68,-1.75 40.04,12.97 7.95,15.89 -2.2,30.85 -14.17,34.14 -13.13,3.6 -86.13,1.04 -105.25,1.05 -18.13,0.01 -33.3,1.79 -40.68,-13.2 -8.37,-17.01 3.5,-31.03 16.22,-34.19z"/>
   <path class="fil2" d="M483.47 234.23c149.67,-19.14 269.39,99.31 283.96,234.35 16.86,156.12 -94.28,280.1 -225.36,295.49 -150.06,17.6 -269.14,-97.69 -284.16,-233.69 -17.48,-158.27 93.79,-279.31 225.56,-296.15zm216.02 531.26c10.3,-4.78 15.84,-13.42 25.54,-20.05 -10.28,-23.35 2.08,-35.8 24.07,-25.7 3.4,-4.24 6.75,-7.49 10.17,-11.88 3.88,-4.98 6.35,-8.58 10.32,-14.01 -12.3,-25.18 -8.15,-12.62 9.59,-49.6 27.78,-57.88 40.02,-117.5 31.66,-184.57 -32.01,-256.9 -332.09,-365.67 -510.46,-182.63 -78.73,80.8 -113.33,211.91 -69.16,332.82 6.71,18.37 14.13,33.86 23.16,49.87l22.29 33.56c73.04,99.82 207.33,141.27 323.34,105.14 18.06,-5.62 35.34,-12.99 50.87,-21.06 15.16,-7.88 33.08,-27.01 48.61,-11.89z"/>
   <path class="fil1" d="M488.95 268.01c130.44,-15.29 233.85,87.88 245.93,207.19 13.7,135.35 -84.42,242.84 -199.1,254.98 -130.55,13.81 -232.88,-87.1 -245.32,-206.56 -14.19,-136.18 83.89,-242.18 198.49,-255.61zm-5.48 -33.78c-131.77,16.84 -243.04,137.88 -225.56,296.15 15.02,136 134.1,251.29 284.16,233.69 131.08,-15.39 242.22,-139.37 225.36,-295.49 -14.57,-135.04 -134.29,-253.49 -283.96,-234.35z"/>
   <path class="fil1" d="M505.84 481.63c24.41,-10.15 33.64,27.17 13.39,35.14 -22.15,8.73 -35.84,-25.82 -13.39,-35.14zm53.5 -6.2c16.73,-16.53 32.14,-33.35 48.62,-50.48 18.63,-19.36 48.36,-41.76 32.9,-58.77 -13.09,-14.4 -26.8,3.31 -32.53,9.29l-72.69 75.42c-22.14,-7.05 -23.87,-7.03 -46.01,0 -21.82,-22.34 -43.26,-54.55 -59.77,-37.46 -13.44,13.93 3.98,28.65 9.81,34.69 9.15,9.5 17.23,17.95 26.3,27.31 -4.57,22.42 -8.96,34.31 4.52,54.15 7.62,11.22 22.21,22.84 42.14,22.84 20.14,0 35.13,-11.87 42.83,-23.83 13.06,-20.3 8.04,-31.66 3.88,-53.16z"/>
   <path class="fil3" d="M448.48 36.38c-12.72,3.16 -24.59,17.18 -16.22,34.19 7.38,14.99 22.55,13.21 40.68,13.2 19.12,-0.01 92.12,2.55 105.25,-1.05 11.97,-3.29 22.12,-18.25 14.17,-34.14 -7.36,-14.72 -21.99,-12.98 -40.04,-12.97 -19.86,0.02 -90.04,-2.66 -103.84,0.77z"/>
   <path class="fil4" d="M472.28 154.18c29.82,-2.32 50.32,-2.55 80.13,-0.01l-0.11 -36.01 -79.36 0.01 -0.66 36.01z"/>
   <path class="fil1" d="M496.44 686.97c4.26,20.87 41.11,19.78 31.93,-23.44 -4.63,-21.83 -40.9,-20.46 -31.93,23.44z"/>
   <path class="fil1" d="M507.23 299.2c-17.91,6.45 -16.29,57.02 11.15,48.11 19.56,-6.35 15.01,-57.52 -11.15,-48.11z"/>
   <path class="fil1" d="M704.41 506.39c11.54,-28.7 -38.15,-31.73 -45.24,-14.32 -11.51,28.24 37.95,32.43 45.24,14.32z"/>
   <path class="fil1" d="M319.54 501.23c1.99,20.68 48.83,22.29 47.88,-3.41 -0.88,-23.68 -50.43,-23.02 -47.88,3.41z"/>
   <path class="fil3" d="M505.84 481.63c-22.45,9.32 -8.76,43.87 13.39,35.14 20.25,-7.97 11.02,-45.29 -13.39,-35.14z"/>
   <path class="fil1" d="M-0 604.48c0.05,24.67 33.07,24.66 33.07,-0.06 0,-21.94 -33.02,-22.96 -33.07,-0.06l0 0.12z"/>
   <path class="fil1" d="M725.03 745.44c7.68,5.74 16.15,7.36 23.81,-0.27 8.74,-8.71 5.99,-16.86 0.26,-25.43 -21.99,-10.1 -34.35,2.35 -24.07,25.7z"/>
  </g>
 </g>
</svg>
