<?xml version="1.0" encoding="UTF-8"?>
<!DOCTYPE svg PUBLIC "-//W3C//DTD SVG 1.1//EN" "http://www.w3.org/Graphics/SVG/1.1/DTD/svg11.dtd">
<!-- Creator: CorelDRAW 2020 (64-Bit) -->
<svg xmlns="http://www.w3.org/2000/svg" xml:space="preserve" width="68.5798mm" height="21.1666mm" version="1.1" style="shape-rendering:geometricPrecision; text-rendering:geometricPrecision; image-rendering:optimizeQuality; fill-rule:evenodd; clip-rule:evenodd"
viewBox="0 0 6857.98 2116.66"
 xmlns:xlink="http://www.w3.org/1999/xlink"
 xmlns:xodm="http://www.corel.com/coreldraw/odm/2003">
 <defs>
  <style type="text/css">
   <![CDATA[
    .fil0 {fill:#DC223F}
    .fil3 {fill:#DC223F;fill-rule:nonzero}
    .fil2 {fill:#1F1B20;fill-rule:nonzero}
    .fil1 {fill:#DC223F;fill-rule:nonzero}
    .fil4 {fill:#DC223F;fill-rule:nonzero}
   ]]>
  </style>
 </defs>
 <g id="Layer_x0020_1">
  <metadata id="CorelCorpID_0Corel-Layer"/>
  <g id="_1452931392368">
   <path class="fil0" d="M10.92 1424.47l0 16.17c67.91,-6.47 158.47,-77.63 200.52,-129.38 113.21,-135.84 132.61,-313.72 174.66,-485.14 32.34,-135.84 58.22,-271.69 87.33,-407.53 12.93,-48.52 25.87,-84.09 58.21,-106.74 61.45,-45.28 210.23,-32.34 297.57,-32.34 113.2,0 206.99,12.94 287.85,-42.04 58.22,-35.58 119.67,-103.51 129.37,-200.53l-698.62 0c-16.17,9.7 -42.04,6.46 -93.79,29.1 -161.72,80.86 -194.06,210.24 -226.4,371.95l-171.42 789.18c-6.48,32.35 -12.95,67.93 -22.65,97.03 -3.23,19.41 -6.46,35.58 -9.7,51.76 -3.23,19.4 -6.47,38.8 -12.93,48.51z"/>
   <path class="fil0" d="M1569.87 1434.17l184.35 0c6.48,-45.28 16.18,-87.33 22.65,-132.61 6.46,-42.04 3.23,-29.11 25.87,-51.75 9.7,-6.46 35.58,-29.11 45.28,-32.34l87.33 216.7c22.64,6.47 168.18,3.23 200.53,0l-152.01 -342.84c6.46,-16.17 129.37,-119.67 148.78,-142.31 16.17,-12.94 25.87,-19.4 38.8,-32.34 19.41,-16.17 109.97,-97.03 113.21,-106.74l-242.58 0c-22.64,0 -35.57,22.65 -48.52,35.59 -22.64,19.4 -158.48,155.24 -168.18,158.48l103.5 -423.7 -174.66 0 -184.35 853.86z"/>
   <path class="fil0" d="M3491.07 1434.17c32.34,0 168.18,3.23 184.35,-3.23 6.47,-22.64 16.17,-97.03 22.64,-129.38 6.47,-38.81 3.24,-29.11 29.11,-48.51 6.47,-6.47 35.58,-35.58 42.05,-38.81l87.33 219.93 200.53 0c-6.47,-25.87 -148.78,-320.2 -152.02,-346.07 38.82,-42.05 291.09,-261.98 300.8,-278.16l-236.11 0c-22.64,0 -25.87,3.24 -35.57,16.18 -9.71,9.7 -16.18,16.17 -25.88,25.87 -19.41,16.17 -35.58,32.34 -51.75,51.75 -12.94,9.7 -100.27,97.03 -109.97,100.27l103.5 -423.7 -174.66 0 -184.35 853.86z"/>
   <path class="fil0" d="M1007.1 1663.81c19.4,12.94 54.97,16.17 84.08,12.94 84.1,0 139.08,-42.05 181.13,-106.74 25.88,-35.57 45.28,-80.86 67.92,-122.9l194.06 -381.66c16.17,-32.33 122.9,-239.33 126.14,-255.51l-200.53 0c-22.65,42.05 -155.25,349.32 -164.96,352.55l-35.57 -352.55 -187.6 0c0,22.65 9.71,80.86 12.95,106.74 12.93,71.16 87.32,501.32 77.62,520.72 -48.52,129.38 -122.91,77.63 -142.31,97.04 -6.47,12.93 -12.93,106.73 -12.93,129.37z"/>
   <path class="fil0" d="M2769.81 958.72c103.5,-25.87 106.74,93.8 100.27,161.72 -9.7,77.62 -32.35,155.25 -100.27,168.19 -100.26,22.63 -106.73,-77.63 -100.26,-161.72 9.7,-80.86 29.11,-152.01 100.26,-168.19zm281.39 174.66c29.11,-190.83 -84.09,-333.14 -268.45,-323.44 -168.18,9.71 -271.69,139.08 -294.32,300.8 -25.88,190.82 77.62,336.37 268.45,323.43 171.42,-9.7 268.44,-135.84 294.32,-300.79z"/>
   <path class="fil0" d="M3500.77 971.66c3.24,-32.34 25.88,-109.97 25.88,-135.84 -32.35,-12.94 -119.68,-25.88 -158.49,-25.88 -97.03,0 -203.76,25.88 -249.04,113.21 -19.4,45.28 -25.87,106.73 -6.47,152.01 42.05,93.8 190.83,106.73 197.29,171.42 6.47,61.45 -64.68,67.92 -119.66,61.45 -71.16,-9.7 -122.9,-42.05 -139.08,-42.05l-25.88 139.08c74.4,32.34 232.87,38.81 316.97,12.94 97.03,-32.34 161.72,-113.2 142.31,-213.47 -19.4,-116.43 -139.08,-129.37 -187.59,-174.65 -16.17,-16.17 -19.41,-45.28 -3.24,-67.92 12.94,-16.17 35.58,-25.88 64.69,-25.88 67.92,0 119.67,32.35 142.31,35.58z"/>
   <path class="fil0" d="M981.22 1421.24c-97.04,-35.58 -9.7,-346.08 6.47,-423.7 6.46,-38.82 87.32,-401.07 87.32,-426.94l-181.12 0c-16.17,84.09 -38.81,168.19 -54.98,258.75 -19.4,84.09 -38.81,174.66 -58.22,258.75 -38.82,181.12 -93.79,375.18 168.18,342.84 12.95,0 25.88,-3.24 32.35,-9.7z"/>
   <path class="fil0" d="M2459.31 1424.47c-22.64,-19.41 -29.1,-19.41 -38.81,-54.98 -9.7,-25.88 -9.7,-54.99 -9.7,-87.34 3.23,-122.89 87.33,-413.99 90.56,-472.21l-184.36 0c-6.47,25.88 -16.17,71.16 -22.63,100.27l-61.46 297.56c-16.17,74.38 -19.41,152.01 29.11,194.06 51.75,48.52 174.65,35.57 197.29,22.64z"/>
   <path class="fil0" d="M489.6 767.9c38.81,3.24 93.79,0 132.6,0 74.4,0 155.26,16.17 184.36,-87.33 6.47,-25.88 22.65,-84.1 25.87,-109.97 -61.44,0 -219.93,-9.7 -261.97,9.71 -29.12,12.93 -48.52,38.81 -58.23,74.38 -6.46,25.88 -19.4,87.34 -22.63,113.21z"/>
   <path class="fil0" d="M2414.03 586.77c-145.54,29.12 -103.5,219.94 42.05,190.83 142.31,-25.87 106.73,-219.93 -42.05,-190.83z"/>
   <path class="fil1" d="M4200.85 1331.59c6.73,-34.76 22.06,-63.32 47.3,-86.9 25.25,-23.6 52.47,-34.77 82.94,-34.77 30.49,0 54.44,11.17 70.55,34.77 16.12,23.58 20.38,52.14 13.65,86.9 -6.74,34.76 -22.05,63.32 -48.4,86.9 -25.25,23.6 -52.69,36 -83.17,36 -30.48,0 -53.11,-12.4 -69.23,-36 -15.02,-23.58 -20.37,-52.14 -13.64,-86.9z"/>
   <path class="fil2" d="M2535.14 1981.34l0 -364.33 118.05 0c44.78,0 73.78,1.53 87.52,5.59 20.87,5.09 38.17,17.31 52.41,35.62 13.74,18.32 20.87,41.73 20.87,70.73 0,22.39 -4.08,41.22 -12.22,56.49 -8.14,15.26 -18.31,27.47 -30.53,36.12 -12.72,8.65 -25.44,14.25 -38.16,17.3 -17.81,3.05 -43.25,5.09 -76.32,5.09l-47.84 0 0 137.39 -73.78 0zm73.78 -302.76l0 103.8 40.2 0c29,0 48.34,-2.03 58.01,-5.59 9.67,-4.08 17.3,-10.18 22.9,-18.32 5.59,-8.15 8.14,-17.3 8.14,-28.5 0,-13.23 -4.07,-23.91 -11.7,-32.56 -7.64,-8.66 -17.3,-14.25 -29.52,-16.29 -8.65,-1.53 -25.95,-2.54 -52.41,-2.54l-35.62 0zm317.01 120.09l-63.09 -11.2c7.12,-25.95 19.33,-44.78 36.63,-57.5 17.81,-12.21 43.26,-18.32 77.85,-18.32 31.05,0 54.45,3.56 69.72,11.2 14.75,7.12 25.95,16.28 32.05,27.98 6.11,11.2 9.16,32.06 9.16,62.59l-1.01 81.42c0,22.89 1.01,40.19 3.56,50.88 2.03,11.19 6.1,22.9 12.2,35.62l-69.19 0c-1.53,-4.58 -4.07,-11.2 -6.62,-20.35 -1.02,-4.08 -2.03,-7.13 -2.54,-8.15 -11.71,11.71 -24.43,20.36 -38.16,26.46 -13.74,5.6 -27.99,8.66 -43.26,8.66 -26.97,0 -48.34,-7.64 -64.11,-22.4 -15.77,-14.24 -23.41,-33.07 -23.41,-55.46 0,-15.26 3.56,-28.49 10.69,-40.2 7.12,-11.7 17.3,-20.35 30.02,-26.46 12.72,-6.61 31.04,-11.7 55.46,-16.28 32.57,-6.11 54.96,-12.21 67.68,-17.3l0 -7.13c0,-13.73 -3.05,-23.4 -9.67,-29 -7.12,-5.6 -19.34,-8.65 -37.65,-8.65 -12.72,0 -22.39,2.54 -29.51,7.63 -6.62,4.58 -12.22,13.23 -16.8,25.96zm93.63 56.47c-8.65,3.06 -22.9,6.62 -42.24,10.69 -19.33,4.07 -32.05,8.14 -38.16,12.21 -9.16,6.62 -13.74,14.76 -13.74,24.43 0,9.67 3.57,18.32 11.2,25.44 7.12,7.12 16.28,10.69 27.48,10.69 12.72,0 24.93,-4.08 36.12,-12.22 8.65,-6.61 14.25,-14.24 16.8,-23.4 1.52,-6.11 2.54,-17.31 2.54,-34.1l0 -13.74zm103.8 -137.89l74.29 0 63.6 187.25 61.58 -187.25 72.25 0 -93.12 253.91 -16.79 46.3c-6.1,15.27 -12.21,26.97 -17.81,35.12 -5.09,8.14 -11.7,14.75 -18.83,19.84 -7.12,5.09 -16.28,8.65 -26.96,11.71 -10.18,2.54 -22.39,4.06 -35.62,4.06 -13.23,0 -26.46,-1.52 -39.69,-4.06l-6.11 -54.45c11.2,2.04 20.86,3.05 29.52,3.05 16.28,0 28.49,-4.58 36.12,-14.24 8.14,-9.68 14.25,-21.89 18.32,-36.64l-100.75 -264.6z"/>
   <path class="fil2" d="M3577.41 1981.34l0 -364.33 44.78 0 0 364.33 -44.78 0zm294.11 -85.49l46.3 6.11c-7.12,26.97 -20.86,47.83 -40.2,62.59 -19.84,14.75 -44.78,22.38 -75.31,22.38 -38.67,0 -69.2,-11.7 -91.58,-35.61 -22.91,-23.92 -34.1,-56.99 -34.1,-99.74 0,-44.26 11.19,-78.87 34.1,-103.29 22.89,-24.43 52.41,-36.64 89.04,-36.64 35.11,0 63.6,11.71 85.99,36.13 22.4,23.92 33.59,57.5 33.59,101.26 0,2.54 0,6.61 0,11.7l-196.92 0c1.52,29.01 9.66,50.89 24.42,66.66 14.76,15.27 33.08,22.9 55.46,22.9 16.29,0 30.03,-4.58 41.73,-13.23 11.7,-8.65 20.86,-22.39 27.48,-41.22zm-146.55 -71.74l147.06 0c-2.04,-22.39 -7.63,-38.67 -16.8,-49.87 -14.24,-17.3 -32.56,-25.95 -55.46,-25.95 -20.35,0 -37.66,6.62 -51.39,20.35 -14.25,13.74 -21.88,32.57 -23.41,55.47zm231.52 78.36l44.27 -7.12c2.55,17.8 9.67,31.03 20.87,40.7 11.19,9.67 27.47,14.25 47.83,14.25 20.35,0 35.61,-4.07 45.79,-12.72 9.67,-8.14 14.76,-17.81 14.76,-29.52 0,-9.66 -4.58,-17.8 -13.23,-23.4 -6.62,-4.07 -21.88,-9.16 -45.8,-15.27 -33.07,-8.14 -55.46,-15.26 -68.18,-21.37 -12.72,-6.11 -22.39,-14.76 -29,-25.44 -6.11,-10.17 -9.67,-22.39 -9.67,-35.11 0,-11.7 2.54,-22.39 8.14,-32.56 5.6,-10.18 12.72,-18.32 21.88,-24.94 7.12,-5.09 16.28,-9.67 28.49,-13.23 12.22,-3.56 24.94,-5.09 38.68,-5.09 20.35,0 38.67,3.06 54.44,9.16 15.78,5.6 26.97,13.74 34.6,23.92 7.13,10.18 12.73,23.91 15.27,41.21l-43.76 6.11c-2.04,-13.74 -7.63,-24.43 -17.3,-32.06 -9.16,-8.14 -22.9,-11.7 -40.2,-11.7 -20.36,0 -35.11,3.56 -43.76,10.18 -8.65,6.61 -13.23,14.75 -13.23,23.91 0,5.6 2.04,10.69 5.6,15.77 3.56,4.58 9.15,8.66 16.79,11.71 4.58,1.52 17.81,5.6 39.69,11.19 31.55,8.65 53.43,15.78 66.15,20.86 12.72,5.6 22.39,13.23 29.51,23.41 7.12,10.18 10.68,22.9 10.68,38.17 0,14.75 -4.06,29 -13.23,42.23 -8.65,13.23 -20.86,23.41 -37.65,30.53 -16.28,7.12 -34.6,10.68 -55.46,10.68 -34.1,0 -60.56,-7.12 -78.36,-21.37 -18.32,-14.24 -29.52,-35.1 -34.61,-63.09zm254.42 0l44.27 -7.12c2.55,17.8 9.67,31.03 20.87,40.7 11.19,9.67 27.47,14.25 47.82,14.25 20.36,0 35.62,-4.07 45.8,-12.72 9.67,-8.14 14.76,-17.81 14.76,-29.52 0,-9.66 -4.58,-17.8 -13.23,-23.4 -6.62,-4.07 -21.88,-9.16 -45.8,-15.27 -33.07,-8.14 -55.46,-15.26 -68.18,-21.37 -12.72,-6.11 -22.39,-14.76 -29.01,-25.44 -6.1,-10.17 -9.66,-22.39 -9.66,-35.11 0,-11.7 2.54,-22.39 8.14,-32.56 5.6,-10.18 12.72,-18.32 21.88,-24.94 7.12,-5.09 16.28,-9.67 28.49,-13.23 12.22,-3.56 24.93,-5.09 38.67,-5.09 20.36,0 38.67,3.06 54.45,9.16 15.78,5.6 26.97,13.74 34.6,23.92 7.12,10.18 12.72,23.91 15.27,41.21l-43.77 6.11c-2.03,-13.74 -7.62,-24.43 -17.29,-32.06 -9.16,-8.14 -22.9,-11.7 -40.2,-11.7 -20.36,0 -35.11,3.56 -43.76,10.18 -8.65,6.61 -13.23,14.75 -13.23,23.91 0,5.6 2.03,10.69 5.6,15.77 3.56,4.58 9.15,8.66 16.79,11.71 4.58,1.52 17.8,5.6 39.68,11.19 31.56,8.65 53.44,15.78 66.15,20.86 12.73,5.6 22.4,13.23 29.52,23.41 7.12,10.18 10.68,22.9 10.68,38.17 0,14.75 -4.06,29 -13.23,42.23 -8.65,13.23 -20.86,23.41 -37.65,30.53 -16.28,7.12 -34.6,10.68 -55.47,10.68 -34.09,0 -60.55,-7.12 -78.35,-21.37 -18.32,-14.24 -29.52,-35.1 -34.61,-63.09z"/>
   <path class="fil2" d="M4628.17 1981.34l0 -364.33 250.35 0 0 61.57 -176.57 0 0 86.5 152.66 0 0 61.57 -152.66 0 0 154.69 -73.78 0zm310.39 0l0 -364.33 69.72 0 0 364.33 -69.72 0zm107.88 -264.09l74.29 0 63.6 187.25 61.57 -187.25 72.26 0 -93.12 253.91 -16.79 46.3c-6.11,15.27 -12.22,26.97 -17.82,35.12 -5.08,8.14 -11.7,14.75 -18.82,19.84 -7.12,5.09 -16.29,8.65 -26.97,11.71 -10.17,2.54 -22.39,4.06 -35.62,4.06 -13.22,0 -26.45,-1.52 -39.68,-4.06l-6.11 -54.45c11.2,2.04 20.86,3.05 29.51,3.05 16.28,0 28.5,-4.58 36.13,-14.24 8.14,-9.68 14.25,-21.89 18.32,-36.64l-100.75 -264.6zm452.86 0l64.12 0 0 36.13c22.9,-27.99 50.37,-41.73 82.43,-41.73 16.79,0 31.55,3.56 43.76,10.18 12.21,7.12 22.39,17.81 30.53,31.55 11.7,-13.74 23.91,-24.43 37.65,-31.55 13.23,-6.62 27.48,-10.18 42.75,-10.18 19.33,0 35.62,4.07 49.36,11.71 13.23,8.14 23.4,19.33 30.02,34.6 4.57,11.19 7.12,29.51 7.12,54.95l0 168.43 -69.71 0 0 -150.62c0,-26.46 -2.55,-43.25 -7.13,-50.88 -6.61,-9.67 -16.28,-14.76 -30.02,-14.76 -9.66,0 -18.82,3.05 -27.48,8.65 -8.65,6.11 -14.75,14.76 -18.82,26.46 -3.56,11.7 -5.6,29.51 -5.6,54.45l0 126.7 -69.71 0 0 -144.51c0,-25.45 -1.02,-42.24 -3.56,-49.87 -2.54,-7.12 -6.62,-12.72 -11.71,-16.28 -5.08,-4.07 -12.21,-5.6 -21.36,-5.6 -10.69,0 -20.36,3.05 -29.01,8.65 -8.65,5.6 -14.76,14.25 -18.32,24.94 -3.56,11.19 -5.6,29 -5.6,54.44l0 128.23 -69.71 0 0 -264.09zm441.17 128.74c0,-23.41 5.6,-45.8 17.3,-67.17 11.19,-21.88 27.48,-38.67 48.34,-49.87 20.86,-11.7 44.27,-17.3 70.22,-17.3 40.2,0 72.76,12.72 98.2,38.67 25.45,26.47 38.17,59.03 38.17,98.72 0,40.2 -12.72,73.27 -38.67,99.22 -25.44,26.46 -58.01,39.7 -97.19,39.7 -23.92,0 -47.33,-5.6 -69.21,-16.29 -21.88,-11.19 -38.67,-26.97 -49.86,-48.34 -11.7,-21.37 -17.3,-46.81 -17.3,-77.34zm71.74 3.56c0,26.46 6.11,46.3 18.83,60.55 12.21,13.74 27.48,20.86 45.8,20.86 18.31,0 33.58,-7.12 45.79,-20.86 12.22,-14.25 18.32,-34.09 18.32,-61.06 0,-25.44 -6.1,-45.8 -18.32,-59.54 -12.21,-13.73 -27.48,-20.86 -45.79,-20.86 -18.32,0 -33.59,7.13 -45.8,20.86 -12.72,13.74 -18.83,34.1 -18.83,60.05zm322.1 131.79l-69.71 0 0 -264.09 64.62 0 0 37.66c11.2,-17.82 21.37,-29.52 30.03,-35.12 9.15,-5.59 18.82,-8.14 30.53,-8.14 15.77,0 31.03,4.58 45.79,13.23l-21.37 60.56c-12.21,-7.64 -22.9,-11.2 -33.07,-11.2 -9.67,0 -18.32,2.55 -24.94,8.14 -6.61,5.09 -12.21,14.76 -15.77,29 -4.07,14.25 -6.11,43.76 -6.11,88.54l0 81.42zm283.94 -83.45l69.71 11.7c-8.65,25.44 -22.9,44.78 -42.24,58.52 -19.33,13.23 -43.76,19.85 -72.25,19.85 -46.31,0 -79.89,-15.27 -102.28,-45.29 -17.3,-23.92 -25.95,-54.45 -25.95,-91.09 0,-43.76 11.7,-77.85 34.09,-102.78 22.9,-24.94 51.9,-37.15 87.01,-37.15 39.18,0 70.23,12.72 92.61,38.67 22.9,25.95 33.59,66.15 32.57,119.58l-174.53 0c0.5,20.86 6.1,36.64 16.79,48.34 10.68,11.7 24.42,17.3 40.2,17.3 10.68,0 19.84,-3.05 27.48,-9.16 7.63,-5.59 13.23,-15.26 16.79,-28.49zm4.06 -70.73c-0.5,-20.35 -5.59,-35.62 -15.77,-46.31 -9.67,-10.68 -21.88,-15.77 -36.12,-15.77 -15.27,0 -27.48,5.6 -37.66,16.79 -9.67,11.2 -14.76,25.95 -14.24,45.29l103.79 0z"/>
   <path class="fil3" d="M6613.36 698.02l0 -183.68 81.33 0c16.41,0 28.99,1.54 37.45,4.87 8.47,3.34 15.4,9.24 20.27,17.45 5.13,8.46 7.69,17.7 7.69,27.7 0,13.09 -4.1,24.12 -12.56,33.1 -8.47,8.72 -21.55,14.36 -39,16.93 6.41,3.08 11.29,6.16 14.62,9.23 6.93,6.42 13.86,14.63 20.01,24.38l31.82 50.02 -30.28 0 -24.37 -38.22c-7.18,-11.04 -12.83,-19.5 -17.44,-25.4 -4.62,-5.9 -8.73,-10 -12.32,-12.31 -3.59,-2.32 -7.44,-3.85 -11.28,-4.88 -2.57,-0.51 -7.19,-0.77 -13.35,-0.77l-28.21 0 0 81.58 -24.38 0zm24.38 -102.61l52.07 0c11.29,0 19.76,-1.29 26.17,-3.6 6.16,-2.05 11.03,-5.9 14.11,-11.03 3.34,-4.87 4.87,-10.52 4.87,-16.42 0,-8.72 -3.07,-15.9 -9.49,-21.29 -6.16,-5.64 -16.16,-8.46 -29.76,-8.46l-57.97 0 0 60.8z"/>
   <path class="fil0" d="M6679.7 438.78c92.43,0 167.37,74.93 167.37,167.37 0,92.42 -74.94,167.35 -167.37,167.35 -92.43,0 -167.36,-74.93 -167.36,-167.35 0,-92.44 74.93,-167.37 167.36,-167.37zm0 19.02c81.93,0 148.34,66.42 148.34,148.35 0,81.92 -66.41,148.34 -148.34,148.34 -81.92,0 -148.34,-66.42 -148.34,-148.34 0,-81.93 66.42,-148.35 148.34,-148.35z"/>
   <g>
    <path class="fil1" d="M4881.78 1215.89l167.04 -0.49c-6.55,46.28 -10.57,73.73 -33.95,108.64 -23.24,34.68 -36.11,46.01 -70.15,67.4 -33.92,21.32 -76.92,35.77 -127.3,42.35 -161.44,21.1 -254.03,-85.6 -267.92,-213.29 -7.03,-64.69 -0.35,-135.4 22.25,-202.3 24.77,-73.34 84.39,-136.46 154.62,-170.21 89.78,-43.15 197.14,-40.93 273.58,21.25 37.19,30.25 84.66,101.88 78.97,185.6l-169.36 2.48c4.42,-51.29 -6.95,-66.68 -22.95,-78.75 -13.66,-10.3 -30.93,-15.81 -54.14,-13.5 -29.13,2.91 -55.05,17.75 -73.71,47.04 -18.58,29.19 -30.87,93.65 -36.75,147.73 -7.5,69.07 2.7,118.57 41.33,131.94 40.31,13.95 95.81,-1.18 118.44,-75.89z"/>
    <path class="fil1" d="M5653.57 1118.2c-9.07,96.6 -22.49,155.04 -78.78,216.35 -56.37,61.4 -111.88,87.83 -205.32,98.47 -92.74,10.57 -166.31,-17.99 -212.46,-67.66 -46.16,-49.67 -64.71,-122.81 -55.63,-219.41 9.15,-97.48 26.93,-158.32 83.48,-219.35 56.55,-61.02 109.4,-84.59 202.02,-96.17 95.83,-11.98 165.28,18.3 211.27,67.99 45.98,49.69 64.5,123.01 55.42,219.78zm-161.91 1.13c3.25,-34.64 3.1,-63.23 -0.32,-85.64 -3.44,-22.56 -9.36,-40.09 -17.88,-52.89 -8.97,-13.47 -19.92,-22.25 -32.65,-26.49 -12.57,-4.18 -27.47,-5.34 -44.36,-3.42 -15.86,1.81 -30.56,5.99 -43.8,12.41 -13.39,6.5 -26.3,17.4 -38.4,32.99 -11.37,14.64 -21.32,34.22 -29.55,58.48 -8.28,24.43 -14.14,54.43 -17.5,90.14 -3.37,35.89 -3.14,64.48 0.47,85.8 3.63,21.48 9.52,38.15 17.45,50.29 8.17,12.52 19.02,20.94 32.73,25.6 13.56,4.6 29.1,6.04 46.34,4.08 14.14,-1.61 28.94,-6.45 44.34,-14.42 15.25,-7.89 27.84,-18.53 37.8,-32.04 11.93,-16.19 21.6,-34.93 29.02,-56.65 7.4,-21.66 12.82,-51.1 16.31,-88.24z"/>
    <path class="fil4" d="M6323.4 1434.25l43.41 -299.72c4.29,-29.57 7.41,-54.58 9.34,-74.84 1.95,-20.26 1.53,-36.87 -1.6,-49.65 -2.96,-12.78 -9.22,-22.27 -18.66,-28.11 -9.45,-5.84 -23.29,-8.76 -41.88,-8.76 -13.11,0 -26.34,3.1 -40.02,9.31 -13.51,6.2 -28.74,15.15 -45.32,26.46l-61.6 425.31 -170.26 0 43.41 -299.72c4.23,-29.21 7.32,-54.03 9.12,-74.48 1.83,-20.62 1.25,-37.23 -1.88,-50.01 -2.96,-12.78 -9.22,-22.27 -18.66,-28.11 -9.28,-5.84 -23.13,-8.76 -41.39,-8.76 -14.1,0 -28.24,3.65 -42.54,10.77 -14.48,7.12 -28.61,15.33 -42.79,25l-61.6 425.31 -170.27 0 86.93 -600.18 170.27 0 -9.63 66.45c31.67,-26.1 60.82,-46.37 87.5,-60.97 26.84,-14.6 55.61,-21.9 86.31,-21.9 33.36,0 61.46,8.76 84.17,26.1 22.85,17.52 38.33,43.63 46.61,78.12 37.55,-33.58 72.15,-59.32 103.78,-77.21 31.5,-18.07 62.33,-27.01 92.03,-27.01 25.39,0 47.33,4.38 66.11,13.32 18.79,8.95 33.95,22.27 45.3,40.16 12.49,19.17 20.48,41.98 24.24,68.63 3.81,26.47 2.6,61.15 -3.59,103.87l-56.57 390.62 -170.27 0z"/>
   </g>
  </g>
 </g>
</svg>
