<?xml version="1.0" encoding="UTF-8"?>
<!DOCTYPE svg PUBLIC "-//W3C//DTD SVG 1.1//EN" "http://www.w3.org/Graphics/SVG/1.1/DTD/svg11.dtd">
<!-- Creator: CorelDRAW 2020 (64-Bit) -->
<svg xmlns="http://www.w3.org/2000/svg" xml:space="preserve" width="11.0066mm" height="11.0066mm" version="1.1" style="shape-rendering:geometricPrecision; text-rendering:geometricPrecision; image-rendering:optimizeQuality; fill-rule:evenodd; clip-rule:evenodd"
viewBox="0 0 1100.66 1100.66"
 xmlns:xlink="http://www.w3.org/1999/xlink"
 xmlns:xodm="http://www.corel.com/coreldraw/odm/2003">
 <defs>
  <style type="text/css">
   <![CDATA[
    .fil0 {fill:black}
   ]]>
  </style>
 </defs>
 <g id="Layer_x0020_1">
  <metadata id="CorelCorpID_0Corel-Layer"/>
  <g id="_1452636658912">
   <path class="fil0" d="M460.6 409.06l408.54 0c45.35,0 45.35,57.27 0,57.27l-408.54 0c-45.34,0 -45.34,-57.27 0,-57.27zm497.69 629.98l-455.69 0c0.79,-1.07 37.47,-29.06 58.92,-55.63l28.13 -38.68c10.93,-16.63 21.86,-40.35 28.69,-61.04 6.54,-19.79 15.52,-52.78 15.99,-73.73l234.81 0c45.35,0 45.35,-57.27 0,-57.27l-234.81 0c-0.57,-25.51 -12.18,-65.73 -21.53,-89.2 -3.45,-8.65 -9.15,-17.73 -10.93,-25.35l263.52 0.07c51.26,0.06 49.61,-57.05 1.93,-57.42l-305.54 0.08c-2.63,-9.87 -38.98,-41.16 -48.79,-48.56 -24.08,-18.16 -32.14,-22.36 -59.37,-36.09 -21.5,-10.84 -48.12,-18.52 -73.66,-23.7 -26.36,-5.34 -25.15,-2.59 -43.16,-4.56 -35.1,-3.85 -21.67,0.28 -44.19,0.28l0 -324.54c0,-44.31 41.87,-82.09 80.18,-82.09l416.17 0 0 213.81c0,22.5 11.87,34.36 34.37,34.36l213.81 0 0 649.08c0,10.73 -4.51,23.92 -8.23,31.87 -4.75,10.18 -8.7,14.72 -16.1,22.08 -13.81,13.71 -28.79,23.76 -50.36,26 -0.8,0.09 -2.24,0.16 -4.16,0.23z"/>
   <path class="fil0" d="M281.15 823.32c15.48,-10.36 109.62,-114.31 122.96,-119.54 17.24,-6.75 32.82,3.76 37.17,16.77 6.66,19.9 -7.31,29.18 -17.42,39.3l-121.2 121.25c-26.99,27.65 -46.71,-3.76 -71.62,-28.67 -8.89,-8.89 -22.19,-20.48 -29.62,-29.56 -16.06,-19.66 3.88,-52.54 31.68,-43.23 12.77,4.28 32.19,33.06 48.05,43.68zm58.01 215.72l-35.38 0c-44.81,-3.29 -89.38,-19.08 -131.85,-47.31 -12.4,-8.25 -31.35,-24.11 -40.49,-35.88 -3.08,-3.96 -4.21,-4.56 -7.28,-7.99 -4.45,-4.99 -9.59,-11.62 -13.32,-17.22l-22.51 -38.59c-21.69,-42.96 -24.81,-75.19 -24.81,-124.09 0,-38.84 17.95,-89.14 35.14,-117.59 18.48,-30.58 43.61,-59.6 73.28,-79.44 77.9,-52.11 175.75,-65.07 260.04,-22.52 6.72,3.39 13.28,6.27 20.19,10.35 7.62,4.5 11.53,7.52 18.36,12.19 25.28,17.29 29.53,24.66 47.82,43.8l25.48 35.62c42.51,70.36 47.79,167.49 10.33,241.68l-22.52 38.58c-4.15,6.21 -8.2,11.94 -13.29,17.26 -17.05,17.85 -24,27.91 -47.8,43.83 -42.3,28.29 -86.72,44.04 -131.39,47.32z"/>
   <polygon class="fil0" points="846.23,252.51 1019.96,252.51 846.71,78.31 "/>
  </g>
 </g>
</svg>
