<?xml version="1.0" encoding="UTF-8"?>
<!DOCTYPE svg PUBLIC "-//W3C//DTD SVG 1.1//EN" "http://www.w3.org/Graphics/SVG/1.1/DTD/svg11.dtd">
<!-- Creator: CorelDRAW 2020 (64-Bit) -->
<svg xmlns="http://www.w3.org/2000/svg" xml:space="preserve" width="11.0066mm" height="11.0066mm" version="1.1" style="shape-rendering:geometricPrecision; text-rendering:geometricPrecision; image-rendering:optimizeQuality; fill-rule:evenodd; clip-rule:evenodd"
viewBox="0 0 1100.66 1100.66"
 xmlns:xlink="http://www.w3.org/1999/xlink"
 xmlns:xodm="http://www.corel.com/coreldraw/odm/2003">
 <defs>
  <style type="text/css">
   <![CDATA[
    .fil0 {fill:black}
   ]]>
  </style>
 </defs>
 <g id="Layer_x0020_1">
  <metadata id="CorelCorpID_0Corel-Layer"/>
  <g id="_1452661565216">
   <path class="fil0" d="M532.06 306.74c44.28,0 48.86,-1.72 93.81,9.72 75.63,19.24 131.25,70.58 169.74,134.74 15.8,26.34 29.28,71.42 32.52,103.48 0.55,5.39 0,10.53 0.41,15.83 2.2,28.18 2.05,4.39 0,30.69 -1.69,21.78 1.22,15.6 -5.78,44.96 -8.5,35.68 -20.33,64.57 -40.17,93.81 -4.59,6.76 -9.82,13.69 -14.76,19.74 -47.74,58.46 -126.46,103.23 -203.29,103.23 -52.89,0 -88.75,-3.6 -135.34,-27.06 -14.91,-7.51 -29.37,-15.16 -42.15,-24.83 -37.84,-28.63 -56.35,-50.43 -80.44,-90.07 -4.77,-7.85 -6.87,-14.21 -11.39,-23.13 -7.81,-15.42 -12.51,-32.02 -16.93,-50.06 -5.1,-20.84 -9.72,-53.22 -6.62,-75.68 2.14,-15.55 -0.59,-14.12 5.15,-45.61 2.82,-15.51 10.12,-36.69 15.97,-51.02 20.42,-50.1 63.44,-99.98 110,-127.49 37.82,-22.35 84.35,-41.25 129.27,-41.25zm314.63 113.68c0,-47.18 41.26,-38.57 81.2,-38.57 17.04,0 34.51,14.84 34.51,30.45l0 12.18c0,36.78 -59.75,28.42 -83.23,28.42 -17.68,0 -32.48,-14.81 -32.48,-32.48zm-582.58 -142.1c-48.92,0 -126.52,-5.55 -162.44,12.13 -38.93,19.17 -71,60.11 -71,105.61l0 452.67c0,61.39 57.03,117.73 121.79,117.73l795.73 0c64.76,0 121.79,-56.34 121.79,-117.73l0 -452.67c0,-31.65 -19.68,-68.83 -42.88,-87.04 -33.81,-26.53 -52.05,-30.7 -101.24,-30.7 -29.77,0.01 -59.54,0 -89.32,0 -8.37,-15.82 -19.92,-29.65 -29.59,-45.51 -28.86,-47.35 -60.65,-98.61 -130.77,-98.61l-251.71 0c-68.41,0 -101.46,49.52 -130.01,97.34 -9.31,15.6 -21.81,30.64 -30.35,46.78z"/>
   <path class="fil0" d="M394.02 580.78c0,63.55 34.24,120.82 91.33,146.17 82.35,36.55 172.63,-3.18 206.43,-75.76 49.54,-106.39 -30.19,-222.65 -141.45,-222.65 -45.74,0 -85.89,21.8 -109.12,45.16 -7.71,7.75 -11.27,11.43 -17.93,20.63 -16.67,23.03 -29.26,55.41 -29.26,86.45z"/>
  </g>
 </g>
</svg>
