<?xml version="1.0" encoding="UTF-8"?>
<!DOCTYPE svg PUBLIC "-//W3C//DTD SVG 1.1//EN" "http://www.w3.org/Graphics/SVG/1.1/DTD/svg11.dtd">
<!-- Creator: CorelDRAW 2020 (64-Bit) -->
<svg xmlns="http://www.w3.org/2000/svg" xml:space="preserve" width="11.0066mm" height="11.0066mm" version="1.1" style="shape-rendering:geometricPrecision; text-rendering:geometricPrecision; image-rendering:optimizeQuality; fill-rule:evenodd; clip-rule:evenodd"
viewBox="0 0 1100.66 1100.66"
 xmlns:xlink="http://www.w3.org/1999/xlink"
 xmlns:xodm="http://www.corel.com/coreldraw/odm/2003">
 <defs>
  <style type="text/css">
   <![CDATA[
    .fil0 {fill:#DC223F}
   ]]>
  </style>
 </defs>
 <g id="Layer_x0020_1">
  <metadata id="CorelCorpID_0Corel-Layer"/>
  <g id="_1452664789952">
   <g>
    <path class="fil0" d="M452.97 398.04l464.99 -0.05 -0.04 282.73 -464.91 0.04 -0.04 -282.72zm463.64 644.95l9.36 0.29c7.28,0.07 13.48,0.67 19.32,-2.4 5.25,-2.77 6.2,-6.92 9.64,-12.24l0 -651.63c-7.47,-13.9 -6.32,-15.67 -27.98,-15.62l-467.02 0c-43.81,0 -43.55,-1.76 -43.55,42.43l0 595.07c0,44.05 -1.74,44.42 41.4,44.42 27.93,0 56.12,-0.38 84.02,0.05l14.35 -0.18 253.42 0.09c7.26,-0.03 14.47,-0.07 21.7,0.02l3.08 -0.04 8.8 0.02 0.88 0.01c7.3,-0.01 14.43,-0.08 21.68,0.01l3.06 -0.05c3.16,-0.03 5.73,0.22 8.68,0.33 3.43,0.11 5.01,-0.33 8.61,-0.23 5.83,0.17 10.39,-0.2 16.17,-0.03l2.12 0.04 9.22 -0.32 3.04 -0.04zm-73.06 -36.42l-9.69 0 -380.78 -0.03c-0.2,-14.4 -1.54,-273.86 0.6,-282.72l464.07 0.1 0.18 282.2 -74.38 0.45z"/>
    <path class="fil0" d="M216.87 202.3c-15.85,18.06 -38.21,60.77 -48.16,88.93 -10.13,28.7 -16.4,52.79 -20.2,83.4 -0.84,6.72 -1.31,25.41 -2.79,29.9l0 1.95 171.35 -0.25c1.29,-15.09 1.14,-30.92 2.37,-46.33 2.35,-29.4 5.82,-54.09 11.59,-82.87 1.94,-9.67 8.4,-30.95 8.69,-38.77 -23.36,-5.21 -60.09,-18.53 -82.17,-29.18 -6.98,-3.36 -18.03,-9.82 -24.17,-11.87 -2.12,-1.52 -5.04,-3.69 -8.03,-4.79 -1.84,1.05 -1.35,0.76 -2.67,2.1l-5.81 7.78z"/>
    <path class="fil0" d="M195.1 603c12.45,20.91 19.01,27.79 28.86,42.94 6.81,-2.17 19.07,-10.12 27.18,-14 24.2,-11.57 63.34,-27.49 88.83,-32.06 -1.74,-12.15 -6.61,-27.19 -9.19,-40.02 -2.68,-13.34 -5.02,-26.87 -6.93,-40.51 -3.91,-27.92 -6.7,-59.24 -6.57,-88l-171.32 -0.05c3.69,62.48 18.17,119.72 49.14,171.7z"/>
    <path class="fil0" d="M717.57 333.98l152.01 -0.16c-4.68,-31.55 -32.19,-92.2 -52.19,-119.64 -2.43,-3.34 -4.03,-3.43 -5.91,-6.79 -2.62,-4.7 -5.28,-10.48 -10.43,-15.15 -8.15,3.27 -17.64,9.64 -26.59,13.87 -19.39,9.19 -37.83,16.7 -58.36,23.43 -7.73,2.53 -24.6,5.95 -30.4,9.64 4.9,25.26 15.45,57.21 16.31,83.64l0.88 11.54 14.68 -0.38z"/>
    <path class="fil0" d="M571.13 875.14c-5.33,-63.18 41.1,-111.89 97.52,-117.36 62.1,-6.02 112.43,42.02 117.15,98.15 5.25,62.37 -42.56,112.23 -98.1,116.73 -61.87,5.01 -111.87,-41.77 -116.57,-97.52zm37.91 -119.37c-7.07,4.14 -15.58,10.04 -19.06,14.99 -3.65,1.61 -11.83,11.58 -15.16,15.96 -4.44,5.82 -7.96,11.74 -11.91,19.25 -40.63,77.31 7.38,174.3 96.95,187.83 108.1,16.32 191.57,-106.33 124.67,-203.3 -27.43,-39.77 -78.01,-62.78 -130.6,-52.95 -14.72,2.75 -35.71,10.24 -44.89,18.22z"/>
    <path class="fil0" d="M388.79 406.7c2.47,-14.6 -2.35,-27.51 3.3,-42.8 11.63,-31.54 39.09,-29.74 62.46,-29.74 15.25,0 30.72,-0.25 45.94,0.08l-0.11 -74.83c-60.41,-0.11 -82,-7.02 -136.49,-15.02 -2.45,12.34 -6.15,24.67 -8.77,37.4 -5.79,28.13 -16.35,101.96 -12.93,124.83l46.6 0.08z"/>
    <path class="fil0" d="M371.65 220.7c20.18,4.22 40.53,7.57 61.35,9.85 17.15,1.89 51.07,5.73 67.43,3.95l0 -168.99c-29.39,-0.48 -65.88,36.04 -82.09,58.93 -15.1,21.31 -42.25,71.35 -46.69,96.26z"/>
    <path class="fil0" d="M525.02 234.78c65.08,-1.26 71.2,-5.89 128.85,-13.86 -2.01,-12.38 -14.51,-39.64 -20.09,-51.2 -8.34,-17.25 -16.22,-30.43 -26.19,-44.81 -14.11,-20.35 -33.74,-40.17 -55.66,-50.95 -10.28,-5.05 -14.96,-5.67 -26.2,-8.76 -2.21,8.81 -0.34,147.04 -0.71,169.58z"/>
    <path class="fil0" d="M241.29 172.47c12.47,10.7 84.23,39.87 105.66,42.05 1.62,-2.53 17.47,-51 41.16,-89.12 11.3,-18.18 28.42,-39.58 44.46,-53.43l18.62 -14.22c0.15,-0.15 0.42,-0.44 0.61,-0.69 -43.16,5.95 -88.16,24.42 -120.54,42.67 -15.02,8.47 -47.05,30.64 -59.05,42.12 -3.62,3.46 -7.34,5.89 -10.91,9.55 -4,4.1 -6.33,6.77 -10.02,10.41 -3.58,3.54 -7.93,6.79 -9.99,10.66z"/>
    <path class="fil0" d="M678.37 214.43c11.37,-0.62 44.57,-13.21 55.7,-17.48 12.79,-4.92 32.07,-13.58 44.14,-20.36l6.12 -4.12 -4.88 -5.33c-1.84,-1.92 -2.77,-3.16 -4.62,-5.04 -24.87,-25.38 -48.72,-43.77 -80.73,-62.36 -28.2,-16.37 -82.79,-39.24 -120.23,-42.58 2.37,3.26 20.35,12.93 34.81,30.06 29.3,34.71 43.16,57.83 60.72,102.81 2.95,7.57 5.74,17.59 8.97,24.4z"/>
    <path class="fil0" d="M524.99 334.26c19.81,-0.59 147.24,1.21 153.94,-0.84 -3.06,-13.85 -4.26,-30.8 -7.29,-45.66 -3.07,-14.99 -6.96,-29.31 -9.99,-43.41 -51.78,8.5 -81.13,14.96 -136.55,15.05l-0.11 74.86z"/>
    <path class="fil0" d="M264.6 689.57c6.07,6.44 34.63,28.33 42.71,33.68 17.58,11.64 61.4,37.13 81.82,41.22 0.43,-13.75 0.91,-33.01 0.09,-46.5 -0.38,-6.28 -4.36,-10.3 -7.32,-15.5 -7.99,-14.03 -16.15,-31.2 -22.45,-46.41 -2.75,-6.64 -9.91,-28.73 -12.5,-32.52 -20.48,1.93 -92.84,31.54 -105.58,41.77l23.23 24.26z"/>
    <path class="fil0" d="M341.81 431.29c0.59,42.38 4.93,84.58 13.5,125.76 2.23,10.71 7.27,26.86 8.44,36.72l25.44 -4.63 0.02 -157.78 -47.4 -0.07z"/>
    <path class="fil0" d="M666.41 897.69c-3.57,-5.56 -28,-38.33 -31.87,-40.05 -10.79,-4.81 -19.91,7.1 -12.97,17.29l31.17 40.91c4.23,5.75 10.8,18.29 21.73,11.37 4.05,-2.57 47.52,-80.14 54.14,-91.2 2.81,-4.7 12.2,-19.21 12.16,-24.36 -0.09,-11.41 -13.71,-14.75 -20.42,-5.36 -9.23,12.94 -48.16,86.9 -53.94,91.4z"/>
    <path class="fil0" d="M380.35 615.77l-8.59 2.19c1.27,7.13 13.73,38.59 17.38,43.07l0.23 -36.78 0.58 -10.73 -9.6 2.25z"/>
   </g>
   <path class="fil0" d="M917.92 680.71l0.03 -282.72 -464.97 0.05 0.04 282.73 464.9 -0.06zm-295.89 -86.02c-3.92,-6.42 -2.39,-96.91 -1.32,-101.16 2.47,-9.85 15.93,-11.12 20.31,-2.77 3.25,6.2 1.97,96.8 1.13,100.3 -2.5,10.53 -15.21,11.71 -20.12,3.63zm-50.2 -13.34c-3.73,9.66 -5.92,18.56 -18.29,18.55 -11.88,-0.01 -14.95,-10.09 -18.34,-19.55 -3.19,-8.91 -6.55,-17.73 -9.85,-26.71l-19.74 -55.13c-1.84,-13.34 13.98,-17.94 19.99,-7.55 3.27,5.64 16.12,45.87 19.2,55.06 1.63,4.87 7.24,24.01 10.06,26.85 1.72,-6.14 25.7,-79.18 28.43,-83.37 5.31,-8.14 21.48,-4.78 18.58,9.87l-30.04 81.98zm124.2 17.67c-13.85,-2.33 -22.74,-8.8 -28.07,-17.97 -12,-20.71 5.62,-29.33 12.88,-20.42 8.19,10.02 4.52,20.96 23.39,22.53 13.2,1.1 28.28,-5.62 24.79,-19.93 -4.05,-16.66 -47.75,-11 -59.94,-32.91 -5.92,-10.68 -3.99,-25.95 6.02,-35.1 17.83,-16.26 56.75,-11.94 68.05,5.25 10.99,16.72 -5.97,30.67 -14.43,17.61 -6.8,-10.52 -9.93,-20.49 -29.37,-15.95 -14.88,3.49 -17.49,17.12 -2.8,23.3 11.41,4.81 24.05,5.83 35.48,10.87 38.04,16.77 20.54,72.2 -36,62.72zm78.8 -42.83c5.15,-13.32 10.47,-26.91 15.68,-40.16 2.7,-6.87 5.12,-13.49 8.06,-19.94 3.04,-6.66 6.88,-11.4 16.48,-10.77 14.89,0.96 17.99,20.23 23.22,33.03 5.44,13.3 10.54,25.93 15.81,39.08 4.1,10.24 17.19,32.23 7.23,40.11 -14.19,11.2 -22.08,-16.19 -24.84,-25.96l-45.2 -0.02c-1.51,5.51 -5.2,15.07 -7.59,20.37 -5.31,11.77 -14.17,8.41 -17.66,5.11 -7.91,-7.51 5.14,-31.39 8.81,-40.85z"/>
   <path class="fil0" d="M830.06 554.41l-15.48 -43.74c-1.5,1.35 -1.85,0.9 -3.54,5.5 -0.37,1.02 -1.22,3.92 -1.78,5.54l-11.63 32.97 32.43 -0.27z"/>
  </g>
 </g>
</svg>
